# xmcd CD database file
#
# Track frame offsets:
#	150
#	13907
#	24753
#	37998
#	53725
#	68094
#	81905
#	99427
#	108183
#	123054
#
# Disc length: 2005 seconds
#
# Revision: 2
# Processed by: cddbd v1.4PL0 Copyright (c) Steve Scherf et al.
# Submitted via: CDex 1.40Beta9
#
DISCID=6c07d30a
DTITLE=Harry James - Harry James
DYEAR=1900
DGENRE=Jazz
TTITLE0=I`ve Heard That Song Before
TTITLE1=Trumpet Blues
TTITLE2=Ciribiribin
TTITLE3=I Had The Craziest Dream
TTITLE4=You Made Me Love You
TTITLE5=Cherry
TTITLE6=Stardust
TTITLE7=Sleepy Time Gal
TTITLE8=Carnival
TTITLE9=Two O`Clock Jump
EXTD=ID3G: 8
EXTT0=
EXTT1=
EXTT2=
EXTT3=
EXTT4=
EXTT5=
EXTT6=
EXTT7=
EXTT8=
EXTT9=
PLAYORDER=
